# Blender 4.5.4 LTS
# www.blender.org
mtllib LunarArrow.mtl
o LunarArrow
v 0.034000 0.000000 -0.020000
v 0.017000 0.029445 -0.020000
v -0.017000 0.029445 -0.020000
v -0.034000 0.000000 -0.020000
v -0.017000 -0.029445 -0.020000
v 0.017000 -0.029445 -0.020000
v 0.027591 0.000000 -0.111739
v 0.013795 0.023894 -0.111739
v -0.013795 0.023894 -0.111739
v -0.027591 0.000000 -0.111739
v -0.013795 -0.023894 -0.111739
v 0.013795 -0.023894 -0.111739
v 0.022056 0.000000 -0.203478
v 0.011028 0.019101 -0.203478
v -0.011028 0.019101 -0.203478
v -0.022056 0.000000 -0.203478
v -0.011028 -0.019101 -0.203478
v 0.011028 -0.019101 -0.203478
v 0.029221 0.000000 -0.295217
v 0.014610 0.025306 -0.295217
v -0.014610 0.025306 -0.295217
v -0.029221 0.000000 -0.295217
v -0.014610 -0.025306 -0.295217
v 0.014610 -0.025306 -0.295217
v 0.033778 0.000000 -0.386957
v 0.016889 0.029252 -0.386957
v -0.016889 0.029252 -0.386957
v -0.033778 0.000000 -0.386957
v -0.016889 -0.029252 -0.386957
v 0.016889 -0.029252 -0.386957
v 0.025991 0.000000 -0.478696
v 0.012995 0.022509 -0.478696
v -0.012995 0.022509 -0.478696
v -0.025991 0.000000 -0.478696
v -0.012995 -0.022509 -0.478696
v 0.012995 -0.022509 -0.478696
v 0.022497 0.000000 -0.570435
v 0.011248 0.019483 -0.570435
v -0.011248 0.019483 -0.570435
v -0.022497 0.000000 -0.570435
v -0.011248 -0.019483 -0.570435
v 0.011248 -0.019483 -0.570435
v 0.030760 0.000000 -0.662174
v 0.015380 0.026639 -0.662174
v -0.015380 0.026639 -0.662174
v -0.030760 0.000000 -0.662174
v -0.015380 -0.026639 -0.662174
v 0.015380 -0.026639 -0.662174
v 0.033127 0.000000 -0.753913
v 0.016563 0.028688 -0.753913
v -0.016563 0.028688 -0.753913
v -0.033127 0.000000 -0.753913
v -0.016563 -0.028688 -0.753913
v 0.016563 -0.028688 -0.753913
v 0.024540 0.000000 -0.845652
v 0.012270 0.021252 -0.845652
v -0.012270 0.021252 -0.845652
v -0.024540 0.000000 -0.845652
v -0.012270 -0.021252 -0.845652
v 0.012270 -0.021252 -0.845652
v 0.023346 0.000000 -0.937391
v 0.011673 0.020218 -0.937391
v -0.011673 0.020218 -0.937391
v -0.023346 0.000000 -0.937391
v -0.011673 -0.020218 -0.937391
v 0.011673 -0.020218 -0.937391
v 0.032095 0.000000 -1.029130
v 0.016048 0.027795 -1.029130
v -0.016048 0.027795 -1.029130
v -0.032095 0.000000 -1.029130
v -0.016048 -0.027795 -1.029130
v 0.016048 -0.027795 -1.029130
v 0.032095 0.000000 -1.120870
v 0.016048 0.027795 -1.120870
v -0.016048 0.027795 -1.120870
v -0.032095 0.000000 -1.120870
v -0.016048 -0.027795 -1.120870
v 0.016048 -0.027795 -1.120870
v 0.023346 0.000000 -1.212609
v 0.011673 0.020218 -1.212609
v -0.011673 0.020218 -1.212609
v -0.023346 0.000000 -1.212609
v -0.011673 -0.020218 -1.212609
v 0.011673 -0.020218 -1.212609
v 0.024540 0.000000 -1.304348
v 0.012270 0.021252 -1.304348
v -0.012270 0.021252 -1.304348
v -0.024540 0.000000 -1.304348
v -0.012270 -0.021252 -1.304348
v 0.012270 -0.021252 -1.304348
v 0.033127 0.000000 -1.396087
v 0.016563 0.028688 -1.396087
v -0.016563 0.028688 -1.396087
v -0.033127 0.000000 -1.396087
v -0.016563 -0.028688 -1.396087
v 0.016563 -0.028688 -1.396087
v 0.030760 0.000000 -1.487826
v 0.015380 0.026639 -1.487826
v -0.015380 0.026639 -1.487826
v -0.030760 0.000000 -1.487826
v -0.015380 -0.026639 -1.487826
v 0.015380 -0.026639 -1.487826
v 0.022497 0.000000 -1.579565
v 0.011248 0.019483 -1.579565
v -0.011248 0.019483 -1.579565
v -0.022497 0.000000 -1.579565
v -0.011248 -0.019483 -1.579565
v 0.011248 -0.019483 -1.579565
v 0.025991 0.000000 -1.671304
v 0.012995 0.022509 -1.671304
v -0.012995 0.022509 -1.671304
v -0.025991 0.000000 -1.671304
v -0.012995 -0.022509 -1.671304
v 0.012995 -0.022509 -1.671304
v 0.033778 0.000000 -1.763044
v 0.016889 0.029252 -1.763044
v -0.016889 0.029252 -1.763044
v -0.033778 0.000000 -1.763044
v -0.016889 -0.029252 -1.763044
v 0.016889 -0.029252 -1.763044
v 0.029221 0.000000 -1.854783
v 0.014610 0.025306 -1.854783
v -0.014610 0.025306 -1.854783
v -0.029221 0.000000 -1.854783
v -0.014610 -0.025306 -1.854783
v 0.014610 -0.025306 -1.854783
v 0.022056 0.000000 -1.946522
v 0.011028 0.019101 -1.946522
v -0.011028 0.019101 -1.946522
v -0.022056 0.000000 -1.946522
v -0.011028 -0.019101 -1.946522
v 0.011028 -0.019101 -1.946522
v 0.027591 0.000000 -2.038261
v 0.013795 0.023894 -2.038261
v -0.013795 0.023894 -2.038261
v -0.027591 0.000000 -2.038261
v -0.013795 -0.023894 -2.038261
v 0.013795 -0.023894 -2.038261
v 0.034000 0.000000 -2.130000
v 0.017000 0.029445 -2.130000
v -0.017000 0.029445 -2.130000
v -0.034000 0.000000 -2.130000
v -0.017000 -0.029445 -2.130000
v 0.017000 -0.029445 -2.130000
v -0.000000 0.000000 -0.020000
v -0.000000 0.000000 -2.130000
v 0.000000 0.000000 -2.590000
v 0.100000 0.000000 -2.290000
v 0.000000 0.000000 -1.990000
v -0.100000 0.000000 -2.290000
v 0.000000 0.035000 -2.290000
v 0.000000 -0.035000 -2.290000
v 0.050000 0.022000 -2.150000
v 0.067058 0.000000 -2.188380
v 0.050000 -0.022000 -2.150000
v 0.032942 0.000000 -2.111620
v 0.069259 0.019778 -2.140370
v 0.087609 0.000000 -2.173138
v 0.069259 -0.019778 -2.140370
v 0.050909 0.000000 -2.107603
v 0.087037 0.017556 -2.129259
v 0.105946 0.000000 -2.156440
v 0.087037 -0.017556 -2.129259
v 0.068128 0.000000 -2.102078
v 0.103333 0.015333 -2.116667
v 0.121989 0.000000 -2.138432
v 0.103333 -0.015333 -2.116667
v 0.084677 0.000000 -2.094901
v 0.118148 0.013111 -2.102593
v 0.135709 0.000000 -2.119276
v 0.118148 -0.013111 -2.102593
v 0.100587 0.000000 -2.085910
v 0.131481 0.010889 -2.087037
v 0.147131 0.000000 -2.099130
v 0.131481 -0.010889 -2.087037
v 0.115832 0.000000 -2.074944
v 0.143333 0.008667 -2.070000
v 0.156336 0.000000 -2.078127
v 0.143333 -0.008667 -2.070000
v 0.130331 0.000000 -2.061873
v 0.153704 0.006444 -2.051481
v 0.163443 0.000000 -2.056351
v 0.153704 -0.006444 -2.051481
v 0.143964 0.000000 -2.046612
v 0.162593 0.004222 -2.031482
v 0.168591 0.000000 -2.033838
v 0.162593 -0.004222 -2.031482
v 0.156594 0.000000 -2.029125
v 0.170000 0.002000 -2.010000
v 0.171916 0.000000 -2.010575
v 0.170000 -0.002000 -2.010000
v 0.168084 0.000000 -2.009425
v 0.050000 0.000000 -2.150000
v 0.171630 0.000000 -2.005273
v -0.050000 0.022000 -2.150000
v -0.032942 0.000000 -2.111620
v -0.050000 -0.022000 -2.150000
v -0.067058 0.000000 -2.188380
v -0.069259 0.019778 -2.140370
v -0.050909 0.000000 -2.107603
v -0.069259 -0.019778 -2.140370
v -0.087609 0.000000 -2.173138
v -0.087037 0.017556 -2.129259
v -0.068128 0.000000 -2.102078
v -0.087037 -0.017556 -2.129259
v -0.105946 0.000000 -2.156440
v -0.103333 0.015333 -2.116667
v -0.084677 0.000000 -2.094901
v -0.103333 -0.015333 -2.116667
v -0.121989 0.000000 -2.138432
v -0.118148 0.013111 -2.102593
v -0.100587 0.000000 -2.085910
v -0.118148 -0.013111 -2.102593
v -0.135709 0.000000 -2.119276
v -0.131481 0.010889 -2.087037
v -0.115832 0.000000 -2.074944
v -0.131481 -0.010889 -2.087037
v -0.147131 0.000000 -2.099130
v -0.143333 0.008667 -2.070000
v -0.130331 0.000000 -2.061873
v -0.143333 -0.008667 -2.070000
v -0.156336 0.000000 -2.078127
v -0.153704 0.006444 -2.051481
v -0.143964 0.000000 -2.046612
v -0.153704 -0.006444 -2.051481
v -0.163443 0.000000 -2.056351
v -0.162593 0.004222 -2.031482
v -0.156594 0.000000 -2.029125
v -0.162593 -0.004222 -2.031482
v -0.168591 0.000000 -2.033838
v -0.170000 0.002000 -2.010000
v -0.168084 0.000000 -2.009425
v -0.170000 -0.002000 -2.010000
v -0.171916 0.000000 -2.010575
v -0.050000 0.000000 -2.150000
v -0.171630 0.000000 -2.005273
v 0.006000 0.020000 -0.050000
v 0.006000 0.130000 -0.020000
v 0.006000 0.120000 -0.160000
v 0.006000 0.020000 -0.500000
v -0.006000 0.020000 -0.050000
v -0.006000 0.130000 -0.020000
v -0.006000 0.120000 -0.160000
v -0.006000 0.020000 -0.500000
v -0.020321 -0.004804 -0.050000
v -0.115583 -0.059804 -0.020000
v -0.106923 -0.054804 -0.160000
v -0.020321 -0.004804 -0.500000
v -0.014321 -0.015196 -0.050000
v -0.109583 -0.070196 -0.020000
v -0.100923 -0.065196 -0.160000
v -0.014321 -0.015196 -0.500000
v 0.014321 -0.015196 -0.050000
v 0.109583 -0.070196 -0.020000
v 0.100923 -0.065196 -0.160000
v 0.014321 -0.015196 -0.500000
v 0.020321 -0.004804 -0.050000
v 0.115583 -0.059804 -0.020000
v 0.106923 -0.054804 -0.160000
v 0.020321 -0.004804 -0.500000
v 0.000000 0.000000 0.050000
v 0.035000 0.000000 0.000000
v 0.000000 0.000000 -0.050000
v -0.035000 0.000000 0.000000
v 0.000000 0.030000 0.000000
v 0.000000 -0.030000 0.000000
vn 0.8646 0.4992 -0.0564
vn 0.8644 0.4991 -0.0604
vn -0.0000 0.9984 -0.0564
vn -0.0000 0.9982 -0.0604
vn -0.8644 0.4991 -0.0604
vn -0.8646 0.4992 -0.0564
vn -0.8646 -0.4992 -0.0564
vn -0.8644 -0.4991 -0.0604
vn -0.0000 -0.9984 -0.0564
vn -0.0000 -0.9982 -0.0604
vn 0.8644 -0.4991 -0.0604
vn 0.8646 -0.4992 -0.0564
vn 0.8660 0.5000 0.0078
vn -0.0000 1.0000 0.0078
vn -0.8660 0.5000 0.0078
vn -0.8660 -0.5000 0.0078
vn -0.0000 -1.0000 0.0078
vn 0.8660 -0.5000 0.0078
vn 0.8647 0.4992 0.0550
vn -0.0000 0.9985 0.0550
vn -0.8647 0.4992 0.0550
vn -0.8647 -0.4992 0.0550
vn -0.0000 -0.9985 0.0550
vn 0.8647 -0.4992 0.0550
vn 0.8659 0.4999 -0.0149
vn -0.0000 0.9999 -0.0149
vn -0.8659 0.4999 -0.0149
vn -0.8659 -0.4999 -0.0149
vn -0.0000 -0.9999 -0.0149
vn 0.8659 -0.4999 -0.0149
vn 0.8648 0.4993 -0.0535
vn -0.0000 0.9986 -0.0535
vn -0.8648 0.4993 -0.0535
vn -0.8648 -0.4993 -0.0535
vn -0.0000 -0.9986 -0.0535
vn 0.8648 -0.4993 -0.0535
vn 0.8658 0.4999 0.0229
vn -0.0000 0.9997 0.0229
vn -0.8658 0.4999 0.0229
vn -0.8658 -0.4999 0.0229
vn -0.0000 -0.9997 0.0229
vn 0.8658 -0.4999 0.0229
vn 0.8650 0.4994 0.0496
vn -0.0000 0.9988 0.0496
vn -0.8650 0.4994 0.0496
vn -0.8650 -0.4994 0.0496
vn -0.0000 -0.9988 0.0496
vn 0.8650 -0.4994 0.0496
vn 0.8657 0.4998 -0.0287
vn -0.0000 0.9996 -0.0287
vn -0.8657 0.4998 -0.0287
vn -0.8657 -0.4998 -0.0287
vn -0.0000 -0.9996 -0.0287
vn 0.8657 -0.4998 -0.0287
vn 0.8651 0.4995 -0.0466
vn -0.0000 0.9989 -0.0466
vn -0.8651 0.4995 -0.0466
vn -0.8651 -0.4995 -0.0466
vn -0.0000 -0.9989 -0.0466
vn 0.8651 -0.4995 -0.0466
vn 0.8655 0.4997 0.0362
vn -0.0000 0.9993 0.0362
vn -0.8655 0.4997 0.0362
vn -0.8655 -0.4997 0.0362
vn -0.0000 -0.9993 0.0362
vn 0.8655 -0.4997 0.0362
vn 0.8653 0.4996 0.0406
vn -0.0000 0.9992 0.0406
vn -0.8653 0.4996 0.0406
vn -0.8653 -0.4996 0.0406
vn -0.0000 -0.9992 0.0406
vn 0.8653 -0.4996 0.0406
vn 0.8653 0.4996 -0.0406
vn -0.0000 0.9992 -0.0406
vn -0.8653 0.4996 -0.0406
vn -0.8653 -0.4996 -0.0406
vn -0.0000 -0.9992 -0.0406
vn 0.8653 -0.4996 -0.0406
vn 0.8655 0.4997 -0.0362
vn -0.0000 0.9993 -0.0362
vn -0.8655 0.4997 -0.0362
vn -0.8655 -0.4997 -0.0362
vn -0.0000 -0.9993 -0.0362
vn 0.8655 -0.4997 -0.0362
vn 0.8651 0.4995 0.0466
vn -0.0000 0.9989 0.0466
vn -0.8651 0.4995 0.0466
vn -0.8651 -0.4995 0.0466
vn -0.0000 -0.9989 0.0466
vn 0.8651 -0.4995 0.0466
vn 0.8657 0.4998 0.0287
vn -0.0000 0.9996 0.0287
vn -0.8657 0.4998 0.0287
vn -0.8657 -0.4998 0.0287
vn -0.0000 -0.9996 0.0287
vn 0.8657 -0.4998 0.0287
vn 0.8650 0.4994 -0.0496
vn -0.0000 0.9988 -0.0496
vn -0.8650 0.4994 -0.0496
vn -0.8650 -0.4994 -0.0496
vn -0.0000 -0.9988 -0.0496
vn 0.8650 -0.4994 -0.0496
vn 0.8658 0.4999 -0.0229
vn -0.0000 0.9997 -0.0229
vn -0.8658 0.4999 -0.0229
vn -0.8658 -0.4999 -0.0229
vn -0.0000 -0.9997 -0.0229
vn 0.8658 -0.4999 -0.0229
vn 0.8648 0.4993 0.0535
vn -0.0000 0.9986 0.0535
vn -0.8648 0.4993 0.0535
vn -0.8648 -0.4993 0.0535
vn -0.0000 -0.9986 0.0535
vn 0.8648 -0.4993 0.0535
vn 0.8659 0.4999 0.0149
vn -0.0000 0.9999 0.0149
vn -0.8659 0.4999 0.0149
vn -0.8659 -0.4999 0.0149
vn -0.0000 -0.9999 0.0149
vn 0.8659 -0.4999 0.0149
vn 0.8647 0.4992 -0.0550
vn -0.0000 0.9985 -0.0550
vn -0.8647 0.4992 -0.0550
vn -0.8647 -0.4992 -0.0550
vn -0.0000 -0.9985 -0.0550
vn 0.8647 -0.4992 -0.0550
vn 0.8660 0.5000 -0.0078
vn -0.0000 1.0000 -0.0078
vn -0.8660 0.5000 -0.0078
vn -0.8660 -0.5000 -0.0078
vn -0.0000 -1.0000 -0.0078
vn 0.8660 -0.5000 -0.0078
vn 0.8646 0.4992 0.0564
vn -0.0000 0.9984 0.0564
vn -0.8646 0.4992 0.0564
vn -0.8646 -0.4992 0.0564
vn -0.0000 -0.9984 0.0564
vn 0.8646 -0.4992 0.0564
vn 0.8644 0.4991 0.0604
vn -0.0000 0.9982 0.0604
vn -0.8644 0.4991 0.0604
vn -0.8644 -0.4991 0.0604
vn -0.0000 -0.9982 0.0604
vn 0.8644 -0.4991 0.0604
vn -0.0000 -0.0000 1.0000
vn -0.0000 -0.0000 -1.0000
vn 0.3304 0.9439 -0.0000
vn 0.3284 0.9382 -0.1095
vn 0.3304 -0.9439 -0.0000
vn 0.3284 -0.9382 -0.1095
vn 0.3284 0.9382 0.1095
vn 0.3284 -0.9382 0.1095
vn -0.3304 0.9439 -0.0000
vn -0.3284 0.9382 0.1095
vn -0.3304 -0.9439 -0.0000
vn -0.3284 -0.9382 0.1095
vn -0.3284 0.9382 -0.1095
vn -0.3284 -0.9382 -0.1095
vn 0.2856 0.8821 -0.3745
vn 0.2999 0.8809 -0.3661
vn 0.2817 0.8811 -0.3799
vn 0.2999 -0.8809 -0.3661
vn 0.2856 -0.8821 -0.3745
vn 0.2817 -0.8811 -0.3799
vn -0.1214 -0.8800 0.4592
vn -0.1246 -0.8813 0.4559
vn -0.1028 -0.8820 0.4599
vn -0.1246 0.8813 0.4559
vn -0.1214 0.8800 0.4592
vn -0.1028 0.8820 0.4599
vn 0.3049 0.8819 -0.3595
vn 0.3377 0.8794 -0.3356
vn 0.3377 -0.8794 -0.3356
vn 0.3049 -0.8819 -0.3595
vn -0.1450 -0.8790 0.4542
vn -0.1680 -0.8800 0.4442
vn -0.1680 0.8800 0.4442
vn -0.1450 0.8790 0.4542
vn 0.3415 0.8804 -0.3292
vn 0.3735 0.8776 -0.3005
vn 0.3735 -0.8776 -0.3005
vn 0.3415 -0.8804 -0.3292
vn -0.1880 -0.8774 0.4414
vn -0.2138 -0.8784 0.4273
vn -0.2138 0.8784 0.4273
vn -0.1880 0.8774 0.4414
vn 0.3761 0.8784 -0.2950
vn 0.4066 0.8753 -0.2618
vn 0.4066 -0.8753 -0.2618
vn 0.3761 -0.8784 -0.2950
vn -0.2325 -0.8755 0.4236
vn -0.2606 -0.8764 0.4050
vn -0.2606 0.8764 0.4050
vn -0.2325 0.8755 0.4236
vn 0.4081 0.8757 -0.2580
vn 0.4365 0.8721 -0.2212
vn 0.4365 -0.8721 -0.2212
vn 0.4081 -0.8757 -0.2580
vn -0.2775 -0.8730 0.4010
vn -0.3072 -0.8733 0.3780
vn -0.3072 0.8733 0.3780
vn -0.2775 0.8730 0.4010
vn 0.4377 0.8718 -0.2197
vn 0.4641 0.8672 -0.1805
vn 0.4641 -0.8672 -0.1805
vn 0.4377 -0.8718 -0.2197
vn -0.3222 -0.8696 0.3742
vn -0.3533 -0.8685 0.3478
vn -0.3533 0.8685 0.3478
vn -0.3222 0.8696 0.3742
vn 0.4662 0.8658 -0.1816
vn 0.4932 0.8582 -0.1421
vn 0.4932 -0.8582 -0.1421
vn 0.4662 -0.8658 -0.1816
vn -0.3669 -0.8641 0.3446
vn -0.4013 -0.8594 0.3169
vn -0.4013 0.8594 0.3169
vn -0.3669 0.8641 0.3446
vn 0.4979 0.8549 -0.1457
vn 0.5370 0.8364 -0.1098
vn 0.5370 -0.8364 -0.1098
vn 0.4979 -0.8549 -0.1457
vn -0.4148 -0.8537 0.3148
vn -0.4632 -0.8372 0.2907
vn -0.4632 0.8372 0.2907
vn -0.4148 0.8537 0.3148
vn 0.5476 0.8287 -0.1156
vn 0.6954 0.7156 -0.0656
vn 0.6954 -0.7156 -0.0656
vn 0.5476 -0.8287 -0.1156
vn -0.4794 -0.8281 0.2906
vn -0.5955 -0.7110 0.3740
vn -0.5955 0.7110 0.3740
vn -0.4794 0.8281 0.2906
vn -0.9138 -0.0000 -0.4061
vn 0.7090 0.7011 -0.0765
vn 0.7272 0.6853 0.0392
vn 0.7090 -0.7011 -0.0765
vn 0.7272 -0.6853 0.0392
vn -0.6107 -0.6943 0.3806
vn -0.5611 -0.6750 0.4791
vn -0.6108 0.6943 0.3806
vn -0.5611 0.6750 0.4791
vn 0.1214 0.8800 0.4592
vn 0.1246 0.8813 0.4559
vn 0.1028 0.8820 0.4599
vn 0.1246 -0.8813 0.4559
vn 0.1214 -0.8800 0.4592
vn 0.1028 -0.8820 0.4599
vn -0.2856 -0.8821 -0.3745
vn -0.2999 -0.8809 -0.3661
vn -0.2817 -0.8811 -0.3799
vn -0.2999 0.8809 -0.3661
vn -0.2856 0.8821 -0.3745
vn -0.2817 0.8811 -0.3799
vn 0.1450 0.8790 0.4542
vn 0.1680 0.8800 0.4442
vn 0.1680 -0.8800 0.4442
vn 0.1450 -0.8790 0.4542
vn -0.3049 -0.8819 -0.3595
vn -0.3377 -0.8794 -0.3356
vn -0.3377 0.8794 -0.3356
vn -0.3049 0.8819 -0.3595
vn 0.1880 0.8774 0.4414
vn 0.2138 0.8784 0.4273
vn 0.2138 -0.8784 0.4273
vn 0.1880 -0.8774 0.4414
vn -0.3415 -0.8804 -0.3292
vn -0.3735 -0.8776 -0.3005
vn -0.3735 0.8776 -0.3005
vn -0.3415 0.8804 -0.3292
vn 0.2325 0.8755 0.4236
vn 0.2606 0.8764 0.4050
vn 0.2606 -0.8764 0.4050
vn 0.2325 -0.8755 0.4236
vn -0.3761 -0.8784 -0.2950
vn -0.4066 -0.8753 -0.2618
vn -0.4066 0.8753 -0.2618
vn -0.3761 0.8784 -0.2950
vn 0.2775 0.8730 0.4010
vn 0.3072 0.8733 0.3780
vn 0.3072 -0.8733 0.3780
vn 0.2775 -0.8730 0.4010
vn -0.4081 -0.8757 -0.2580
vn -0.4365 -0.8721 -0.2212
vn -0.4365 0.8721 -0.2212
vn -0.4081 0.8757 -0.2580
vn 0.3222 0.8696 0.3742
vn 0.3533 0.8685 0.3478
vn 0.3533 -0.8685 0.3478
vn 0.3222 -0.8696 0.3742
vn -0.4377 -0.8718 -0.2197
vn -0.4641 -0.8672 -0.1805
vn -0.4641 0.8672 -0.1805
vn -0.4377 0.8718 -0.2197
vn 0.3669 0.8641 0.3446
vn 0.4013 0.8594 0.3169
vn 0.4013 -0.8594 0.3169
vn 0.3669 -0.8641 0.3446
vn -0.4662 -0.8658 -0.1816
vn -0.4932 -0.8582 -0.1421
vn -0.4932 0.8582 -0.1421
vn -0.4662 0.8658 -0.1816
vn 0.4148 0.8537 0.3148
vn 0.4632 0.8372 0.2907
vn 0.4632 -0.8372 0.2907
vn 0.4148 -0.8537 0.3148
vn -0.4979 -0.8549 -0.1457
vn -0.5370 -0.8364 -0.1098
vn -0.5370 0.8364 -0.1098
vn -0.4979 0.8549 -0.1457
vn 0.4794 0.8281 0.2906
vn 0.5955 0.7110 0.3740
vn 0.5955 -0.7110 0.3740
vn 0.4794 -0.8281 0.2906
vn -0.5476 -0.8287 -0.1156
vn -0.6954 -0.7156 -0.0656
vn -0.6954 0.7156 -0.0656
vn -0.5476 0.8287 -0.1156
vn 0.9138 -0.0000 -0.4061
vn 0.6107 0.6943 0.3806
vn 0.5611 0.6750 0.4791
vn 0.6108 -0.6943 0.3806
vn 0.5611 -0.6750 0.4791
vn -0.7090 -0.7011 -0.0765
vn -0.7272 -0.6853 0.0392
vn -0.7090 0.7011 -0.0765
vn -0.7272 0.6853 0.0392
vn -1.0000 -0.0000 -0.0000
vn 1.0000 -0.0000 -0.0000
vn -0.0000 0.2631 -0.9648
vn -0.0000 -0.9975 0.0712
vn -0.0000 -0.9841 0.1777
vn -0.0000 -0.9594 0.2822
vn -0.0000 1.0000 -0.0000
vn 0.5000 -0.8660 -0.0000
vn -0.5000 0.8660 -0.0000
vn -0.2279 -0.1316 -0.9648
vn 0.8638 0.4987 0.0712
vn 0.8522 0.4920 0.1777
vn 0.8308 0.4797 0.2822
vn -0.8660 -0.5000 -0.0000
vn 0.5000 0.8660 -0.0000
vn -0.5000 -0.8660 -0.0000
vn 0.2279 -0.1316 -0.9648
vn -0.8638 0.4987 0.0712
vn -0.8522 0.4920 0.1777
vn -0.8308 0.4797 0.2822
vn 0.8660 -0.5000 -0.0000
vn 0.5922 0.6909 0.4146
vn 0.5922 -0.6909 0.4146
vn 0.5922 0.6909 -0.4146
vn 0.5922 -0.6909 -0.4146
vn -0.5922 0.6909 -0.4146
vn -0.5922 -0.6909 -0.4146
vn -0.5922 0.6909 0.4146
vn -0.5922 -0.6909 0.4146
vt 0.000000 0.091739
vt 0.166667 0.000000
vt 0.000000 0.000000
vt 0.166667 0.091739
vt 0.333333 0.000000
vt 0.500000 0.091739
vt 0.500000 0.000000
vt 0.666667 0.000000
vt 0.666667 0.091739
vt 0.833333 0.000000
vt 1.000000 0.091739
vt 1.000000 0.000000
vt 0.000000 0.183478
vt 0.166667 0.183478
vt 0.333333 0.091739
vt 0.333333 0.183478
vt 0.500000 0.183478
vt 0.666667 0.183478
vt 0.833333 0.091739
vt 0.833333 0.183478
vt 0.000000 0.275217
vt 0.166667 0.275217
vt 0.333333 0.275217
vt 0.500000 0.275217
vt 0.666667 0.275217
vt 0.833333 0.275217
vt 1.000000 0.183478
vt 0.166667 0.366957
vt 0.333333 0.366957
vt 0.666667 0.366957
vt 0.833333 0.366957
vt 1.000000 0.275217
vt 0.000000 0.458696
vt 0.000000 0.366957
vt 0.166667 0.458696
vt 0.500000 0.458696
vt 0.500000 0.366957
vt 0.666667 0.458696
vt 1.000000 0.458696
vt 1.000000 0.366957
vt 0.000000 0.550435
vt 0.166667 0.550435
vt 0.333333 0.458696
vt 0.500000 0.550435
vt 0.666667 0.550435
vt 0.833333 0.458696
vt 1.000000 0.550435
vt 0.000000 0.642174
vt 0.166667 0.642174
vt 0.333333 0.550435
vt 0.500000 0.642174
vt 0.666667 0.642174
vt 0.833333 0.550435
vt 1.000000 0.642174
vt 0.166667 0.733913
vt 0.333333 0.642174
vt 0.333333 0.733913
vt 0.666667 0.733913
vt 0.833333 0.642174
vt 0.833333 0.733913
vt 0.000000 0.825652
vt 0.000000 0.733913
vt 0.166667 0.825652
vt 0.500000 0.825652
vt 0.500000 0.733913
vt 0.666667 0.825652
vt 1.000000 0.825652
vt 1.000000 0.733913
vt 0.000000 0.917391
vt 0.166667 0.917391
vt 0.333333 0.825652
vt 0.500000 0.917391
vt 0.666667 0.917391
vt 0.833333 0.825652
vt 1.000000 0.917391
vt 0.000000 1.009130
vt 0.166667 1.009130
vt 0.333333 0.917391
vt 0.500000 1.009130
vt 0.666667 1.009130
vt 0.833333 0.917391
vt 1.000000 1.009130
vt 0.000000 1.100870
vt 0.166667 1.100870
vt 0.333333 1.009130
vt 0.333333 1.100870
vt 0.500000 1.100870
vt 0.666667 1.100870
vt 0.833333 1.009130
vt 0.833333 1.100870
vt 0.000000 1.192609
vt 0.166667 1.192609
vt 0.333333 1.192609
vt 0.500000 1.192609
vt 0.666667 1.192609
vt 0.833333 1.192609
vt 1.000000 1.100870
vt 0.000000 1.284348
vt 0.166667 1.284348
vt 0.500000 1.284348
vt 0.666667 1.284348
vt 1.000000 1.284348
vt 1.000000 1.192609
vt 0.000000 1.376087
vt 0.166667 1.376087
vt 0.333333 1.284348
vt 0.500000 1.376087
vt 0.666667 1.376087
vt 0.833333 1.284348
vt 1.000000 1.376087
vt 0.000000 1.467826
vt 0.166667 1.467826
vt 0.333333 1.376087
vt 0.333333 1.467826
vt 0.500000 1.467826
vt 0.666667 1.467826
vt 0.833333 1.376087
vt 0.833333 1.467826
vt 0.000000 1.559565
vt 0.166667 1.559565
vt 0.500000 1.559565
vt 0.666667 1.559565
vt 1.000000 1.559565
vt 1.000000 1.467826
vt 0.000000 1.651304
vt 0.166667 1.651304
vt 0.333333 1.559565
vt 0.333333 1.651304
vt 0.500000 1.651304
vt 0.666667 1.651304
vt 0.833333 1.559565
vt 0.833333 1.651304
vt 0.000000 1.743043
vt 0.166667 1.743043
vt 0.333333 1.743043
vt 0.500000 1.743043
vt 0.666667 1.743043
vt 0.833333 1.743043
vt 1.000000 1.651304
vt 0.000000 1.834783
vt 0.333333 1.834783
vt 0.500000 1.834783
vt 0.833333 1.834783
vt 1.000000 1.834783
vt 1.000000 1.743043
vt 0.000000 1.926522
vt 0.166667 1.834783
vt 0.166667 1.926522
vt 0.333333 1.926522
vt 0.500000 1.926522
vt 0.666667 1.834783
vt 0.666667 1.926522
vt 0.833333 1.926522
vt 0.166667 2.018261
vt 0.333333 2.018261
vt 0.666667 2.018261
vt 0.833333 2.018261
vt 1.000000 1.926522
vt 0.000000 2.110000
vt 0.000000 2.018261
vt 0.166667 2.110000
vt 0.500000 2.110000
vt 0.500000 2.018261
vt 0.666667 2.110000
vt 1.000000 2.110000
vt 1.000000 2.018261
vt 0.500000 0.500000
vt 0.500000 1.000000
vt 0.250000 0.021533
vt 0.250000 0.000000
vt 0.750000 0.021533
vt 0.750000 0.000000
vt 0.000000 0.021533
vt 0.250000 0.042497
vt 0.500000 0.021533
vt 0.750000 0.042497
vt 1.000000 0.021533
vt 0.000000 0.042497
vt 0.250000 0.063092
vt 0.500000 0.042497
vt 0.750000 0.063092
vt 1.000000 0.042497
vt 0.000000 0.063092
vt 0.250000 0.083526
vt 0.500000 0.063092
vt 0.750000 0.083526
vt 1.000000 0.063092
vt 0.000000 0.083526
vt 0.250000 0.104014
vt 0.500000 0.083526
vt 0.750000 0.104014
vt 1.000000 0.083526
vt 0.000000 0.104014
vt 0.250000 0.124768
vt 0.500000 0.104014
vt 0.750000 0.124768
vt 1.000000 0.104014
vt 0.000000 0.124768
vt 0.250000 0.145992
vt 0.500000 0.124768
vt 0.750000 0.145992
vt 1.000000 0.124768
vt 0.000000 0.145992
vt 0.250000 0.167879
vt 0.500000 0.145992
vt 0.750000 0.167879
vt 1.000000 0.145992
vt 0.000000 0.167879
vt 0.250000 0.190601
vt 0.500000 0.167879
vt 0.750000 0.190601
vt 1.000000 0.167879
vt 0.333333 2.110000
vt 0.833333 2.110000
vt 0.000000 0.190601
vt 0.500000 0.190601
vt 1.000000 0.190601
s 1
usemtl ArrowGlow
f 7/1/1 2/2/2 1/3/2
f 8/4/3 3/5/4 2/2/4
f 3/5/5 10/6/6 4/7/5
f 10/6/7 5/8/8 4/7/8
f 11/9/9 6/10/10 5/8/10
f 6/10/11 7/11/12 1/12/11
f 13/13/13 8/4/1 7/1/1
f 14/14/14 9/15/3 8/4/3
f 15/16/15 10/6/6 9/15/6
f 16/17/16 11/9/7 10/6/7
f 17/18/17 12/19/9 11/9/9
f 18/20/18 7/11/12 12/19/12
f 19/21/19 14/14/13 13/13/13
f 20/22/20 15/16/14 14/14/14
f 21/23/21 16/17/15 15/16/15
f 22/24/22 17/18/16 16/17/16
f 23/25/23 18/20/17 17/18/17
f 24/26/24 13/27/18 18/20/18
f 19/21/19 26/28/25 20/22/19
f 26/28/26 21/23/20 20/22/20
f 27/29/27 22/24/21 21/23/21
f 22/24/22 29/30/28 23/25/22
f 29/30/29 24/26/23 23/25/23
f 30/31/30 19/32/24 24/26/24
f 31/33/31 26/28/25 25/34/25
f 32/35/32 27/29/26 26/28/26
f 27/29/27 34/36/33 28/37/27
f 34/36/34 29/30/28 28/37/28
f 35/38/35 30/31/29 29/30/29
f 30/31/30 31/39/36 25/40/30
f 37/41/37 32/35/31 31/33/31
f 38/42/38 33/43/32 32/35/32
f 33/43/33 40/44/39 34/36/33
f 40/44/40 35/38/34 34/36/34
f 41/45/41 36/46/35 35/38/35
f 36/46/36 37/47/42 31/39/36
f 43/48/43 38/42/37 37/41/37
f 44/49/44 39/50/38 38/42/38
f 39/50/39 46/51/45 40/44/39
f 46/51/46 41/45/40 40/44/40
f 47/52/47 42/53/41 41/45/41
f 42/53/42 43/54/48 37/47/42
f 43/48/43 50/55/49 44/49/43
f 50/55/50 45/56/44 44/49/44
f 51/57/51 46/51/45 45/56/45
f 46/51/46 53/58/52 47/52/46
f 53/58/53 48/59/47 47/52/47
f 54/60/54 43/54/48 48/59/48
f 55/61/55 50/55/49 49/62/49
f 56/63/56 51/57/50 50/55/50
f 51/57/51 58/64/57 52/65/51
f 58/64/58 53/58/52 52/65/52
f 59/66/59 54/60/53 53/58/53
f 54/60/54 55/67/60 49/68/54
f 61/69/61 56/63/55 55/61/55
f 62/70/62 57/71/56 56/63/56
f 57/71/57 64/72/63 58/64/57
f 64/72/64 59/66/58 58/64/58
f 65/73/65 60/74/59 59/66/59
f 60/74/60 61/75/66 55/67/60
f 67/76/67 62/70/61 61/69/61
f 68/77/68 63/78/62 62/70/62
f 63/78/63 70/79/69 64/72/63
f 70/79/70 65/73/64 64/72/64
f 71/80/71 66/81/65 65/73/65
f 66/81/66 67/82/72 61/75/66
f 73/83/73 68/77/67 67/76/67
f 74/84/74 69/85/68 68/77/68
f 75/86/75 70/79/69 69/85/69
f 76/87/76 71/80/70 70/79/70
f 77/88/77 72/89/71 71/80/71
f 78/90/78 67/82/72 72/89/72
f 79/91/79 74/84/73 73/83/73
f 80/92/80 75/86/74 74/84/74
f 81/93/81 76/87/75 75/86/75
f 82/94/82 77/88/76 76/87/76
f 83/95/83 78/90/77 77/88/77
f 84/96/84 73/97/78 78/90/78
f 85/98/85 80/92/79 79/91/79
f 86/99/86 81/93/80 80/92/80
f 81/93/81 88/100/87 82/94/81
f 88/100/88 83/95/82 82/94/82
f 89/101/89 84/96/83 83/95/83
f 84/96/84 85/102/90 79/103/84
f 91/104/91 86/99/85 85/98/85
f 92/105/92 87/106/86 86/99/86
f 87/106/87 94/107/93 88/100/87
f 94/107/94 89/101/88 88/100/88
f 95/108/95 90/109/89 89/101/89
f 90/109/90 91/110/96 85/102/90
f 97/111/97 92/105/91 91/104/91
f 98/112/98 93/113/92 92/105/92
f 99/114/99 94/107/93 93/113/93
f 100/115/100 95/108/94 94/107/94
f 101/116/101 96/117/95 95/108/95
f 102/118/102 91/110/96 96/117/96
f 103/119/103 98/112/97 97/111/97
f 104/120/104 99/114/98 98/112/98
f 99/114/99 106/121/105 100/115/99
f 106/121/106 101/116/100 100/115/100
f 107/122/107 102/118/101 101/116/101
f 102/118/102 103/123/108 97/124/102
f 109/125/109 104/120/103 103/119/103
f 110/126/110 105/127/104 104/120/104
f 111/128/111 106/121/105 105/127/105
f 112/129/112 107/122/106 106/121/106
f 113/130/113 108/131/107 107/122/107
f 114/132/114 103/123/108 108/131/108
f 115/133/115 110/126/109 109/125/109
f 116/134/116 111/128/110 110/126/110
f 117/135/117 112/129/111 111/128/111
f 118/136/118 113/130/112 112/129/112
f 119/137/119 114/132/113 113/130/113
f 120/138/120 109/139/114 114/132/114
f 121/140/121 116/134/115 115/133/115
f 116/134/116 123/141/122 117/135/116
f 117/135/117 124/142/123 118/136/117
f 124/142/124 119/137/118 118/136/118
f 119/137/119 126/143/125 120/138/119
f 120/138/120 121/144/126 115/145/120
f 127/146/127 122/147/121 121/140/121
f 128/148/128 123/141/122 122/147/122
f 129/149/129 124/142/123 123/141/123
f 130/150/130 125/151/124 124/142/124
f 131/152/131 126/143/125 125/151/125
f 132/153/132 121/144/126 126/143/126
f 127/146/127 134/154/133 128/148/127
f 134/154/134 129/149/128 128/148/128
f 135/155/135 130/150/129 129/149/129
f 130/150/130 137/156/136 131/152/130
f 137/156/137 132/153/131 131/152/131
f 138/157/138 127/158/132 132/153/132
f 139/159/139 134/154/133 133/160/133
f 140/161/140 135/155/134 134/154/134
f 135/155/135 142/162/141 136/163/135
f 142/162/142 137/156/136 136/163/136
f 143/164/143 138/157/137 137/156/137
f 138/157/138 139/165/144 133/166/138
f 1/167/145 2/167/145 145/167/145
f 2/167/145 3/167/145 145/167/145
f 3/167/145 4/167/145 145/167/145
f 4/167/145 5/167/145 145/167/145
f 5/167/145 6/167/145 145/167/145
f 6/167/145 1/167/145 145/167/145
f 140/167/146 139/167/146 146/167/146
f 141/167/146 140/167/146 146/167/146
f 142/167/146 141/167/146 146/167/146
f 143/167/146 142/167/146 146/167/146
f 144/167/146 143/167/146 146/167/146
f 139/167/146 144/167/146 146/167/146
f 151/3/147 148/12/147 147/168/148
f 152/3/149 147/12/150 148/168/149
f 151/3/147 149/12/151 148/168/147
f 152/3/149 148/12/149 149/168/152
f 151/3/153 150/12/153 149/168/154
f 152/3/155 149/12/156 150/168/155
f 151/3/153 147/12/157 150/168/153
f 152/3/155 150/12/155 147/168/158
f 153/3/159 158/169/160 154/170/161
f 158/169/162 155/7/163 154/170/164
f 155/7/165 160/171/166 156/172/167
f 160/171/168 153/12/169 156/172/170
f 157/173/171 162/174/172 158/169/160
f 162/174/173 159/175/174 158/169/162
f 159/175/175 164/176/176 160/171/166
f 164/176/177 157/177/178 160/171/168
f 161/178/179 166/179/180 162/174/172
f 166/179/181 163/180/182 162/174/173
f 163/180/183 168/181/184 164/176/176
f 168/181/185 161/182/186 164/176/177
f 165/183/187 170/184/188 166/179/180
f 170/184/189 167/185/190 166/179/181
f 167/185/191 172/186/192 168/181/184
f 172/186/193 165/187/194 168/181/185
f 169/188/195 174/189/196 170/184/188
f 174/189/197 171/190/198 170/184/189
f 171/190/199 176/191/200 172/186/192
f 176/191/201 169/192/202 172/186/193
f 173/193/203 178/194/204 174/189/196
f 178/194/205 175/195/206 174/189/197
f 175/195/207 180/196/208 176/191/200
f 180/196/209 173/197/210 176/191/201
f 177/198/211 182/199/212 178/194/204
f 182/199/213 179/200/214 178/194/205
f 179/200/215 184/201/216 180/196/208
f 184/201/217 177/202/218 180/196/209
f 181/203/219 186/204/220 182/199/212
f 186/204/221 183/205/222 182/199/213
f 183/205/223 188/206/224 184/201/216
f 188/206/225 181/207/226 184/201/217
f 185/208/227 190/209/228 186/204/220
f 190/209/229 187/210/230 186/204/221
f 187/210/231 192/211/232 188/206/224
f 192/211/233 185/212/234 188/206/225
f 153/167/235 154/167/235 193/167/235
f 154/167/235 155/167/235 193/167/235
f 155/167/235 156/167/235 193/167/235
f 156/167/235 153/167/235 193/167/235
f 190/167/228 189/167/236 194/167/237
f 191/167/238 190/167/229 194/167/239
f 192/167/232 191/167/240 194/167/241
f 189/167/242 192/167/233 194/167/243
f 195/3/244 200/169/245 196/170/246
f 200/169/247 197/7/248 196/170/249
f 197/7/250 202/171/251 198/172/252
f 202/171/253 195/12/254 198/172/255
f 199/173/256 204/174/257 200/169/245
f 204/174/258 201/175/259 200/169/247
f 201/175/260 206/176/261 202/171/251
f 206/176/262 199/177/263 202/171/253
f 203/178/264 208/179/265 204/174/257
f 208/179/266 205/180/267 204/174/258
f 205/180/268 210/181/269 206/176/261
f 210/181/270 203/182/271 206/176/262
f 207/183/272 212/184/273 208/179/265
f 212/184/274 209/185/275 208/179/266
f 209/185/276 214/186/277 210/181/269
f 214/186/278 207/187/279 210/181/270
f 211/188/280 216/189/281 212/184/273
f 216/189/282 213/190/283 212/184/274
f 213/190/284 218/191/285 214/186/277
f 218/191/286 211/192/287 214/186/278
f 215/193/288 220/194/289 216/189/281
f 220/194/290 217/195/291 216/189/282
f 217/195/292 222/196/293 218/191/285
f 222/196/294 215/197/295 218/191/286
f 219/198/296 224/199/297 220/194/289
f 224/199/298 221/200/299 220/194/290
f 221/200/300 226/201/301 222/196/293
f 226/201/302 219/202/303 222/196/294
f 223/203/304 228/204/305 224/199/297
f 228/204/306 225/205/307 224/199/298
f 225/205/308 230/206/309 226/201/301
f 230/206/310 223/207/311 226/201/302
f 227/208/312 232/209/313 228/204/305
f 232/209/314 229/210/315 228/204/306
f 229/210/316 234/211/317 230/206/309
f 234/211/318 227/212/319 230/206/310
f 195/167/320 196/167/320 235/167/320
f 196/167/320 197/167/320 235/167/320
f 197/167/320 198/167/320 235/167/320
f 198/167/320 195/167/320 235/167/320
f 232/167/313 231/167/321 236/167/322
f 233/167/323 232/167/314 236/167/324
f 234/167/317 233/167/325 236/167/326
f 231/167/327 234/167/318 236/167/328
f 237/3/329 239/3/329 240/3/329
f 243/3/330 241/3/330 244/3/330
f 241/3/331 238/3/331 237/3/331
f 242/3/332 239/3/333 238/3/332
f 243/3/333 240/3/334 239/3/333
f 244/3/335 237/3/335 240/3/335
f 245/3/336 247/3/336 248/3/336
f 251/3/337 249/3/337 252/3/337
f 249/3/338 246/3/338 245/3/338
f 250/3/339 247/3/340 246/3/339
f 251/3/340 248/3/341 247/3/340
f 252/3/342 245/3/342 248/3/342
f 253/3/343 255/3/343 256/3/343
f 259/3/344 257/3/344 260/3/344
f 257/3/345 254/3/345 253/3/345
f 254/3/346 259/3/347 255/3/347
f 255/3/347 260/3/348 256/3/348
f 260/3/349 253/3/349 256/3/349
f 261/3/350 262/12/350 265/168/350
f 262/3/351 261/12/351 266/168/351
f 262/3/352 263/12/352 265/168/352
f 263/3/353 262/12/353 266/168/353
f 263/3/354 264/12/354 265/168/354
f 264/3/355 263/12/355 266/168/355
f 264/3/356 261/12/356 265/168/356
f 261/3/357 264/12/357 266/168/357
f 7/1/1 8/4/1 2/2/2
f 8/4/3 9/15/3 3/5/4
f 3/5/5 9/15/6 10/6/6
f 10/6/7 11/9/7 5/8/8
f 11/9/9 12/19/9 6/10/10
f 6/10/11 12/19/12 7/11/12
f 13/13/13 14/14/13 8/4/1
f 14/14/14 15/16/14 9/15/3
f 15/16/15 16/17/15 10/6/6
f 16/17/16 17/18/16 11/9/7
f 17/18/17 18/20/17 12/19/9
f 18/20/18 13/27/18 7/11/12
f 19/21/19 20/22/19 14/14/13
f 20/22/20 21/23/20 15/16/14
f 21/23/21 22/24/21 16/17/15
f 22/24/22 23/25/22 17/18/16
f 23/25/23 24/26/23 18/20/17
f 24/26/24 19/32/24 13/27/18
f 19/21/19 25/34/25 26/28/25
f 26/28/26 27/29/26 21/23/20
f 27/29/27 28/37/27 22/24/21
f 22/24/22 28/37/28 29/30/28
f 29/30/29 30/31/29 24/26/23
f 30/31/30 25/40/30 19/32/24
f 31/33/31 32/35/31 26/28/25
f 32/35/32 33/43/32 27/29/26
f 27/29/27 33/43/33 34/36/33
f 34/36/34 35/38/34 29/30/28
f 35/38/35 36/46/35 30/31/29
f 30/31/30 36/46/36 31/39/36
f 37/41/37 38/42/37 32/35/31
f 38/42/38 39/50/38 33/43/32
f 33/43/33 39/50/39 40/44/39
f 40/44/40 41/45/40 35/38/34
f 41/45/41 42/53/41 36/46/35
f 36/46/36 42/53/42 37/47/42
f 43/48/43 44/49/43 38/42/37
f 44/49/44 45/56/44 39/50/38
f 39/50/39 45/56/45 46/51/45
f 46/51/46 47/52/46 41/45/40
f 47/52/47 48/59/47 42/53/41
f 42/53/42 48/59/48 43/54/48
f 43/48/43 49/62/49 50/55/49
f 50/55/50 51/57/50 45/56/44
f 51/57/51 52/65/51 46/51/45
f 46/51/46 52/65/52 53/58/52
f 53/58/53 54/60/53 48/59/47
f 54/60/54 49/68/54 43/54/48
f 55/61/55 56/63/55 50/55/49
f 56/63/56 57/71/56 51/57/50
f 51/57/51 57/71/57 58/64/57
f 58/64/58 59/66/58 53/58/52
f 59/66/59 60/74/59 54/60/53
f 54/60/54 60/74/60 55/67/60
f 61/69/61 62/70/61 56/63/55
f 62/70/62 63/78/62 57/71/56
f 57/71/57 63/78/63 64/72/63
f 64/72/64 65/73/64 59/66/58
f 65/73/65 66/81/65 60/74/59
f 60/74/60 66/81/66 61/75/66
f 67/76/67 68/77/67 62/70/61
f 68/77/68 69/85/68 63/78/62
f 63/78/63 69/85/69 70/79/69
f 70/79/70 71/80/70 65/73/64
f 71/80/71 72/89/71 66/81/65
f 66/81/66 72/89/72 67/82/72
f 73/83/73 74/84/73 68/77/67
f 74/84/74 75/86/74 69/85/68
f 75/86/75 76/87/75 70/79/69
f 76/87/76 77/88/76 71/80/70
f 77/88/77 78/90/77 72/89/71
f 78/90/78 73/97/78 67/82/72
f 79/91/79 80/92/79 74/84/73
f 80/92/80 81/93/80 75/86/74
f 81/93/81 82/94/81 76/87/75
f 82/94/82 83/95/82 77/88/76
f 83/95/83 84/96/83 78/90/77
f 84/96/84 79/103/84 73/97/78
f 85/98/85 86/99/85 80/92/79
f 86/99/86 87/106/86 81/93/80
f 81/93/81 87/106/87 88/100/87
f 88/100/88 89/101/88 83/95/82
f 89/101/89 90/109/89 84/96/83
f 84/96/84 90/109/90 85/102/90
f 91/104/91 92/105/91 86/99/85
f 92/105/92 93/113/92 87/106/86
f 87/106/87 93/113/93 94/107/93
f 94/107/94 95/108/94 89/101/88
f 95/108/95 96/117/95 90/109/89
f 90/109/90 96/117/96 91/110/96
f 97/111/97 98/112/97 92/105/91
f 98/112/98 99/114/98 93/113/92
f 99/114/99 100/115/99 94/107/93
f 100/115/100 101/116/100 95/108/94
f 101/116/101 102/118/101 96/117/95
f 102/118/102 97/124/102 91/110/96
f 103/119/103 104/120/103 98/112/97
f 104/120/104 105/127/104 99/114/98
f 99/114/99 105/127/105 106/121/105
f 106/121/106 107/122/106 101/116/100
f 107/122/107 108/131/107 102/118/101
f 102/118/102 108/131/108 103/123/108
f 109/125/109 110/126/109 104/120/103
f 110/126/110 111/128/110 105/127/104
f 111/128/111 112/129/111 106/121/105
f 112/129/112 113/130/112 107/122/106
f 113/130/113 114/132/113 108/131/107
f 114/132/114 109/139/114 103/123/108
f 115/133/115 116/134/115 110/126/109
f 116/134/116 117/135/116 111/128/110
f 117/135/117 118/136/117 112/129/111
f 118/136/118 119/137/118 113/130/112
f 119/137/119 120/138/119 114/132/113
f 120/138/120 115/145/120 109/139/114
f 121/140/121 122/147/121 116/134/115
f 116/134/116 122/147/122 123/141/122
f 117/135/117 123/141/123 124/142/123
f 124/142/124 125/151/124 119/137/118
f 119/137/119 125/151/125 126/143/125
f 120/138/120 126/143/126 121/144/126
f 127/146/127 128/148/127 122/147/121
f 128/148/128 129/149/128 123/141/122
f 129/149/129 130/150/129 124/142/123
f 130/150/130 131/152/130 125/151/124
f 131/152/131 132/153/131 126/143/125
f 132/153/132 127/158/132 121/144/126
f 127/146/127 133/160/133 134/154/133
f 134/154/134 135/155/134 129/149/128
f 135/155/135 136/163/135 130/150/129
f 130/150/130 136/163/136 137/156/136
f 137/156/137 138/157/137 132/153/131
f 138/157/138 133/166/138 127/158/132
f 139/159/139 140/161/139 134/154/133
f 140/161/140 141/213/140 135/155/134
f 135/155/135 141/213/141 142/162/141
f 142/162/142 143/164/142 137/156/136
f 143/164/143 144/214/143 138/157/137
f 138/157/138 144/214/144 139/165/144
f 153/3/159 157/173/171 158/169/160
f 158/169/162 159/175/174 155/7/163
f 155/7/165 159/175/175 160/171/166
f 160/171/168 157/177/178 153/12/169
f 157/173/171 161/178/179 162/174/172
f 162/174/173 163/180/182 159/175/174
f 159/175/175 163/180/183 164/176/176
f 164/176/177 161/182/186 157/177/178
f 161/178/179 165/183/187 166/179/180
f 166/179/181 167/185/190 163/180/182
f 163/180/183 167/185/191 168/181/184
f 168/181/185 165/187/194 161/182/186
f 165/183/187 169/188/195 170/184/188
f 170/184/189 171/190/198 167/185/190
f 167/185/191 171/190/199 172/186/192
f 172/186/193 169/192/202 165/187/194
f 169/188/195 173/193/203 174/189/196
f 174/189/197 175/195/206 171/190/198
f 171/190/199 175/195/207 176/191/200
f 176/191/201 173/197/210 169/192/202
f 173/193/203 177/198/211 178/194/204
f 178/194/205 179/200/214 175/195/206
f 175/195/207 179/200/215 180/196/208
f 180/196/209 177/202/218 173/197/210
f 177/198/211 181/203/219 182/199/212
f 182/199/213 183/205/222 179/200/214
f 179/200/215 183/205/223 184/201/216
f 184/201/217 181/207/226 177/202/218
f 181/203/219 185/208/227 186/204/220
f 186/204/221 187/210/230 183/205/222
f 183/205/223 187/210/231 188/206/224
f 188/206/225 185/212/234 181/207/226
f 185/208/227 189/215/236 190/209/228
f 190/209/229 191/216/238 187/210/230
f 187/210/231 191/216/240 192/211/232
f 192/211/233 189/217/242 185/212/234
f 195/3/244 199/173/256 200/169/245
f 200/169/247 201/175/259 197/7/248
f 197/7/250 201/175/260 202/171/251
f 202/171/253 199/177/263 195/12/254
f 199/173/256 203/178/264 204/174/257
f 204/174/258 205/180/267 201/175/259
f 201/175/260 205/180/268 206/176/261
f 206/176/262 203/182/271 199/177/263
f 203/178/264 207/183/272 208/179/265
f 208/179/266 209/185/275 205/180/267
f 205/180/268 209/185/276 210/181/269
f 210/181/270 207/187/279 203/182/271
f 207/183/272 211/188/280 212/184/273
f 212/184/274 213/190/283 209/185/275
f 209/185/276 213/190/284 214/186/277
f 214/186/278 211/192/287 207/187/279
f 211/188/280 215/193/288 216/189/281
f 216/189/282 217/195/291 213/190/283
f 213/190/284 217/195/292 218/191/285
f 218/191/286 215/197/295 211/192/287
f 215/193/288 219/198/296 220/194/289
f 220/194/290 221/200/299 217/195/291
f 217/195/292 221/200/300 222/196/293
f 222/196/294 219/202/303 215/197/295
f 219/198/296 223/203/304 224/199/297
f 224/199/298 225/205/307 221/200/299
f 221/200/300 225/205/308 226/201/301
f 226/201/302 223/207/311 219/202/303
f 223/203/304 227/208/312 228/204/305
f 228/204/306 229/210/315 225/205/307
f 225/205/308 229/210/316 230/206/309
f 230/206/310 227/212/319 223/207/311
f 227/208/312 231/215/321 232/209/313
f 232/209/314 233/216/323 229/210/315
f 229/210/316 233/216/325 234/211/317
f 234/211/318 231/217/327 227/212/319
f 237/3/329 238/3/329 239/3/329
f 243/3/330 242/3/330 241/3/330
f 241/3/331 242/3/331 238/3/331
f 242/3/332 243/3/333 239/3/333
f 243/3/333 244/3/334 240/3/334
f 244/3/335 241/3/335 237/3/335
f 245/3/336 246/3/336 247/3/336
f 251/3/337 250/3/337 249/3/337
f 249/3/338 250/3/338 246/3/338
f 250/3/339 251/3/340 247/3/340
f 251/3/340 252/3/341 248/3/341
f 252/3/342 249/3/342 245/3/342
f 253/3/343 254/3/343 255/3/343
f 259/3/344 258/3/344 257/3/344
f 257/3/345 258/3/345 254/3/345
f 254/3/346 258/3/346 259/3/347
f 255/3/347 259/3/347 260/3/348
f 260/3/349 257/3/349 253/3/349
